<?xml version="1.0" encoding="UTF-8" standalone="no"?>
<!-- Generator: Adobe Illustrator 23.0.2, SVG Export Plug-In . SVG Version: 6.00 Build 0)  -->

<svg
   version="1.1"
   id="Layer_1"
   x="0px"
   y="0px"
   viewBox="0 0 200 143.95199"
   xml:space="preserve"
   sodipodi:docname="logo.svg"
   width="200"
   height="143.952"
   inkscape:version="1.1.1 (c3084ef, 2021-09-22)"
   xmlns:inkscape="http://www.inkscape.org/namespaces/inkscape"
   xmlns:sodipodi="http://sodipodi.sourceforge.net/DTD/sodipodi-0.dtd"
   xmlns="http://www.w3.org/2000/svg"
   xmlns:svg="http://www.w3.org/2000/svg"><defs
   id="defs848" /><sodipodi:namedview
   id="namedview846"
   pagecolor="#ffffff"
   bordercolor="#666666"
   borderopacity="1.0"
   inkscape:pageshadow="2"
   inkscape:pageopacity="0.0"
   inkscape:pagecheckerboard="0"
   showgrid="false"
   inkscape:zoom="1.438"
   inkscape:cx="250"
   inkscape:cy="179.76356"
   inkscape:window-width="1792"
   inkscape:window-height="1025"
   inkscape:window-x="0"
   inkscape:window-y="25"
   inkscape:window-maximized="1"
   inkscape:current-layer="Layer_1" />
<style
   type="text/css"
   id="style821">
	.st0{fill:#FFFFFF;}
	.st1{fill:#71CDE5;}
	.st2{fill:#FFDA74;}
	.st3{fill:#65B96D;}
	.st4{fill:#ED2E73;}
	.st5{fill:#64256B;}
	.st6{fill:#ED2B39;}
	.st7{fill:#641C31;}
	.st8{fill:#1F1F1F;}
</style>
<g
   id="g843"
   transform="matrix(0.4,0,0,0.4,0,-28.024)"
   style="stroke-width:2.5">
	<g
   id="g825"
   style="stroke-width:2.5">
		<path
   class="st8"
   d="m 483.4,225.26 c -5.46,0 -10.67,3.6 -12.39,8.56 -0.33,0.95 -10.79,40.51 -14.92,56.1 L 438.08,225.26 H 410.84 L 392.82,289.8 375.64,225.26 H 215.53 v 86.39 c 0,7.21 5.87,13.07 13.07,13.07 h 13.07 v -36.8 h 34.29 v -23.95 h -34.29 v -14.85 h 46.63 v 75.59 h 26.15 v -36.8 h 34.29 v -23.95 h -34.29 v -14.85 h 41.09 l 22.03,75.59 h 29.75 l 16.97,-58.04 16.97,58.04 h 29.75 L 500,225.26 Z"
   id="path823"
   style="stroke-width:2.5" />
	</g>
	<g
   id="g841"
   style="stroke-width:2.5">
		<polyline
   class="st1"
   points="223.92,70.06 165.81,70.06 13.52,382.18 23.31,382.18 152.29,117.83 170.79,117.83 180.49,97.94     210.32,97.94 223.92,70.06   "
   id="polyline827"
   style="stroke-width:2.5" />
		<polyline
   class="st2"
   points="41.81,382.18 23.31,382.18 0,429.94 58.12,429.94 67.82,410.06 28.2,410.06 41.81,382.18   "
   id="polyline829"
   style="stroke-width:2.5" />
		<polyline
   class="st3"
   points="170.79,117.83 152.29,117.83 23.31,382.18 41.81,382.18 170.79,117.83   "
   id="polyline831"
   style="stroke-width:2.5" />
		<polyline
   class="st4"
   points="238.61,97.94 210.32,97.94 200.61,117.83 210.41,117.83 67.82,410.06 86.32,410.06 238.61,97.94       "
   id="polyline833"
   style="stroke-width:2.5" />
		<polyline
   class="st5"
   points="210.32,97.94 180.49,97.94 170.79,117.83 200.61,117.83 210.32,97.94   "
   id="polyline835"
   style="stroke-width:2.5" />
		<polyline
   class="st6"
   points="210.41,117.83 200.61,117.83 71.63,382.18 41.81,382.18 28.2,410.06 67.82,410.06 210.41,117.83       "
   id="polyline837"
   style="stroke-width:2.5" />
		<polyline
   class="st7"
   points="200.61,117.83 170.79,117.83 41.81,382.18 71.63,382.18 200.61,117.83   "
   id="polyline839"
   style="stroke-width:2.5" />
	</g>
</g>
</svg>
