<?xml version="1.0" encoding="UTF-8" standalone="no"?>
<svg
   xmlns:dc="http://purl.org/dc/elements/1.1/"
   xmlns:cc="http://creativecommons.org/ns#"
   xmlns:rdf="http://www.w3.org/1999/02/22-rdf-syntax-ns#"
   xmlns:svg="http://www.w3.org/2000/svg"
   xmlns="http://www.w3.org/2000/svg"
   xmlns:sodipodi="http://sodipodi.sourceforge.net/DTD/sodipodi-0.dtd"
   xmlns:inkscape="http://www.inkscape.org/namespaces/inkscape"
   width="10"
   height="6"
   viewBox="0 0 10 6"
   fill="none"
   version="1.1"
   id="svg441"
   sodipodi:docname="arrow-up--list.svg"
   inkscape:version="1.0.1 (c497b03c, 2020-09-10)">
  <metadata
     id="metadata447">
    <rdf:RDF>
      <cc:Work
         rdf:about="">
        <dc:format>image/svg+xml</dc:format>
        <dc:type
           rdf:resource="http://purl.org/dc/dcmitype/StillImage" />
        <dc:title></dc:title>
      </cc:Work>
    </rdf:RDF>
  </metadata>
  <defs
     id="defs445" />
  <sodipodi:namedview
     pagecolor="#ffffff"
     bordercolor="#666666"
     borderopacity="1"
     objecttolerance="10"
     gridtolerance="10"
     guidetolerance="10"
     inkscape:pageopacity="0"
     inkscape:pageshadow="2"
     inkscape:window-width="1792"
     inkscape:window-height="1026"
     id="namedview443"
     showgrid="false"
     fit-margin-top="0"
     fit-margin-left="0"
     fit-margin-right="0"
     fit-margin-bottom="0"
     inkscape:zoom="51.125"
     inkscape:cx="4.9999987"
     inkscape:cy="2.9999998"
     inkscape:window-x="0"
     inkscape:window-y="25"
     inkscape:window-maximized="1"
     inkscape:current-layer="svg441" />
  <path
     d="m 4.9102687,0.0043198 c -0.19663,0.02167 -0.3828,0.11005 -0.53233,0.25345 l -4.01944,3.84184 c -0.20262,0.18092 -0.33048,0.44604 -0.3544,0.73369 -0.02392,0.2876 0.05757,0.5736 0.2258,0.7937 0.16897,0.2193 0.40971,0.3535 0.66841,0.371 0.2587,0.0175 0.5129,-0.0825 0.7043,-0.2776 l 3.39739,-3.24828 3.3974,3.24828 c 0.1914,0.1951 0.4456,0.2951 0.7043,0.2776 0.2587,-0.0175 0.4994,-0.1517 0.6684,-0.371 0.1682,-0.2201 0.2497003,-0.5061 0.2258,-0.7937 -0.0239,-0.28765 -0.1518,-0.55276 -0.3544,-0.73369 l -4.01944,-3.84184 c -0.19663,-0.18842 -0.45384,-0.2793 -0.71179,-0.25345 z"
     fill="#5f504d"
     id="path439" />
</svg>
