<?xml version="1.0" encoding="UTF-8" standalone="no"?>
<svg
   xmlns:dc="http://purl.org/dc/elements/1.1/"
   xmlns:cc="http://creativecommons.org/ns#"
   xmlns:rdf="http://www.w3.org/1999/02/22-rdf-syntax-ns#"
   xmlns:svg="http://www.w3.org/2000/svg"
   xmlns="http://www.w3.org/2000/svg"
   xmlns:sodipodi="http://sodipodi.sourceforge.net/DTD/sodipodi-0.dtd"
   xmlns:inkscape="http://www.inkscape.org/namespaces/inkscape"
   width="10"
   height="6"
   viewBox="0 0 10 6"
   fill="none"
   version="1.1"
   id="svg362"
   sodipodi:docname="arrow-down--list.svg"
   inkscape:version="1.0.1 (c497b03c, 2020-09-10)">
  <metadata
     id="metadata368">
    <rdf:RDF>
      <cc:Work
         rdf:about="">
        <dc:format>image/svg+xml</dc:format>
        <dc:type
           rdf:resource="http://purl.org/dc/dcmitype/StillImage" />
        <dc:title></dc:title>
      </cc:Work>
    </rdf:RDF>
  </metadata>
  <defs
     id="defs366" />
  <sodipodi:namedview
     pagecolor="#ffffff"
     bordercolor="#666666"
     borderopacity="1"
     objecttolerance="10"
     gridtolerance="10"
     guidetolerance="10"
     inkscape:pageopacity="0"
     inkscape:pageshadow="2"
     inkscape:window-width="1661"
     inkscape:window-height="867"
     id="namedview364"
     showgrid="false"
     fit-margin-top="0"
     fit-margin-left="0"
     fit-margin-right="0"
     fit-margin-bottom="0"
     inkscape:zoom="32.836271"
     inkscape:cx="5.0000014"
     inkscape:cy="3.8182998"
     inkscape:window-x="0"
     inkscape:window-y="25"
     inkscape:window-maximized="0"
     inkscape:current-layer="svg362" />
  <path
     d="m 5.0897314,5.9956956 c 0.19663,-0.0217 0.3828,-0.1101 0.53233,-0.2535 l 4.01944,-3.84181 c 0.2026,-0.18092 0.3305,-0.44604 0.3544,-0.73369 0.0239,-0.28764002 -0.0576,-0.57360002 -0.2258,-0.79372002 -0.169,-0.21926 -0.4097,-0.35349 -0.6684,-0.37101 -0.2587,-0.01751 -0.5129,0.08253 -0.7043,0.27763 l -3.3974,3.24828002 -3.39739,-3.24828002 c -0.1914,-0.19509 -0.4456,-0.29514 -0.70430001,-0.27763 -0.2587,0.0175 -0.49944,0.15173 -0.66841,0.37101 -0.16823,0.22009 -0.24973,0.50608 -0.2258,0.79372002 0.02393,0.28765 0.15178,0.55276 0.3544,0.73369 l 4.01944001,3.84181 c 0.19663,0.1884 0.45384,0.2793 0.71179,0.2535 z"
     fill="#5f504d"
     id="path360" />
</svg>
