<svg width="32" height="32" viewBox="0 0 32 32" fill="none" xmlns="http://www.w3.org/2000/svg">
<path d="M20.2369 15.7877C20.2108 15.5319 20.1043 15.2896 19.9316 15.095L15.3026 9.86461C15.0846 9.60095 14.7651 9.43457 14.4186 9.40343C14.072 9.3723 13.7274 9.47835 13.4622 9.69726C13.198 9.91714 13.0363 10.2304 13.0152 10.5671C12.9941 10.9037 13.1146 11.2345 13.3497 11.4835L17.2635 15.9045L13.3497 20.3254C13.1146 20.5745 12.9941 20.9053 13.0152 21.2419C13.0363 21.5786 13.198 21.8919 13.4622 22.1117C13.7274 22.3306 14.072 22.4367 14.4186 22.4056C14.7651 22.3744 15.0846 22.2081 15.3026 21.9444L19.9316 16.714C20.1586 16.4581 20.2681 16.1234 20.2369 15.7877Z" fill="#5F504D"/>
<rect x="0.819267" y="31.1807" width="30.3615" height="30.3615" rx="15.1807" transform="rotate(-90 0.819267 31.1807)" stroke="#5F504D" stroke-width="1.63853"/>
</svg>
