<!-- Generated by IcoMoon.io -->
<svg version="1.1" xmlns="http://www.w3.org/2000/svg" width="768" height="768" viewBox="0 0 768 768">
<path fill="#978b87" d="M224 64v32h-64c-26.496 0-50.56 10.784-67.872 28.128s-28.128 41.376-28.128 67.872v448c0 26.496 10.784 50.56 28.128 67.872s41.376 28.128 67.872 28.128h448c26.496 0 50.56-10.784 67.872-28.128s28.128-41.376 28.128-67.872v-448c0-26.496-10.784-50.56-28.128-67.872s-41.376-28.128-67.872-28.128h-64v-32c0-17.664-14.336-32-32-32s-32 14.336-32 32v32h-192v-32c0-17.664-14.336-32-32-32s-32 14.336-32 32zM640 288h-512v-96c0-8.832 3.552-16.8 9.376-22.624s13.792-9.376 22.624-9.376h64v32c0 17.664 14.336 32 32 32s32-14.336 32-32v-32h192v32c0 17.664 14.336 32 32 32s32-14.336 32-32v-32h64c8.832 0 16.8 3.552 22.624 9.376s9.376 13.792 9.376 22.624zM128 352h512v288c0 8.832-3.552 16.8-9.376 22.624s-13.792 9.376-22.624 9.376h-448c-8.832 0-16.8-3.552-22.624-9.376s-9.376-13.792-9.376-22.624z"></path>
</svg>
