<?xml version="1.0" encoding="UTF-8" standalone="no"?>
<svg
   xmlns:dc="http://purl.org/dc/elements/1.1/"
   xmlns:cc="http://creativecommons.org/ns#"
   xmlns:rdf="http://www.w3.org/1999/02/22-rdf-syntax-ns#"
   xmlns:svg="http://www.w3.org/2000/svg"
   xmlns="http://www.w3.org/2000/svg"
   xmlns:sodipodi="http://sodipodi.sourceforge.net/DTD/sodipodi-0.dtd"
   xmlns:inkscape="http://www.inkscape.org/namespaces/inkscape"
   width="19"
   height="23"
   viewBox="0 0 19 23"
   fill="none"
   version="1.1"
   id="svg565"
   sodipodi:docname="documents.svg"
   inkscape:version="1.0.1 (c497b03c, 2020-09-10)">
  <metadata
     id="metadata571">
    <rdf:RDF>
      <cc:Work
         rdf:about="">
        <dc:format>image/svg+xml</dc:format>
        <dc:type
           rdf:resource="http://purl.org/dc/dcmitype/StillImage" />
        <dc:title></dc:title>
      </cc:Work>
    </rdf:RDF>
  </metadata>
  <defs
     id="defs569" />
  <sodipodi:namedview
     pagecolor="#ffffff"
     bordercolor="#666666"
     borderopacity="1"
     objecttolerance="10"
     gridtolerance="10"
     guidetolerance="10"
     inkscape:pageopacity="0"
     inkscape:pageshadow="2"
     inkscape:window-width="1792"
     inkscape:window-height="1026"
     id="namedview567"
     showgrid="false"
     fit-margin-top="0"
     fit-margin-left="0"
     fit-margin-right="0"
     fit-margin-bottom="0"
     inkscape:zoom="35.565217"
     inkscape:cx="10"
     inkscape:cy="11.5"
     inkscape:window-x="0"
     inkscape:window-y="25"
     inkscape:window-maximized="1"
     inkscape:current-layer="svg565" />
  <path
     d="M 16.721624,0 H 5.4012375 C 4.1449086,0 3.1228515,0.967303 3.1228515,2.15625 V 2.875 H 1.5569668 C 0.69842799,2.875 0,3.57515 0,4.43581 V 21.4392 C 0,22.2998 0.69842799,23 1.5569668,23 H 14.320152 c 0.858581,0 1.556957,-0.7002 1.556957,-1.5608 V 20.125 h 0.844515 C 17.977923,20.125 19,19.1577 19,17.9688 V 2.15625 C 19,0.967303 17.977923,0 16.721624,0 Z m -2.278476,21.4392 c 0,0.068 -0.05516,0.1233 -0.122996,0.1233 H 1.5569668 c -0.067843,0 -0.1230064,-0.0553 -0.1230064,-0.1233 V 4.43581 c 0,-0.06801 0.055164,-0.12331 0.1230064,-0.12331 H 14.320152 c 0.06783,0 0.122996,0.0553 0.122996,0.12331 z m 3.122892,-3.4704 c 0,0.3963 -0.378865,0.7187 -0.844416,0.7187 H 15.877109 V 4.43581 c 0,-0.86066 -0.698376,-1.56081 -1.556957,-1.56081 H 4.5568119 V 2.15625 c 0,-0.3963 0.3788349,-0.71875 0.8444256,-0.71875 H 16.721624 c 0.465551,0 0.844416,0.32245 0.844416,0.71875 z"
     fill="#5f504d"
     id="path557"
     style="stroke-width:0.999997" />
  <path
     d="M 11.471683,9.70312 H 4.6603762 c -0.3959526,0 -0.7169901,-0.32182 -0.7169901,-0.71874 0,-0.39693 0.3210375,-0.71876 0.7169901,-0.71876 h 6.8113068 c 0.395923,0 0.71703,0.32183 0.71703,0.71876 0,0.39692 -0.321107,0.71874 -0.71703,0.71874 z"
     fill="#5f504d"
     id="path559"
     style="stroke-width:0.999997" />
  <path
     d="M 11.471683,12.5781 H 4.6603762 c -0.3959526,0 -0.7169901,-0.3218 -0.7169901,-0.7187 0,-0.397 0.3210375,-0.7188 0.7169901,-0.7188 h 6.8113068 c 0.395923,0 0.71703,0.3218 0.71703,0.7188 0,0.3969 -0.321107,0.7187 -0.71703,0.7187 z"
     fill="#5f504d"
     id="path561"
     style="stroke-width:0.999997" />
  <path
     d="M 11.471683,15.4531 H 4.6603762 c -0.3959526,0 -0.7169901,-0.3218 -0.7169901,-0.7187 0,-0.397 0.3210375,-0.7188 0.7169901,-0.7188 h 6.8113068 c 0.395923,0 0.71703,0.3218 0.71703,0.7188 0,0.3969 -0.321107,0.7187 -0.71703,0.7187 z"
     fill="#5f504d"
     id="path563"
     style="stroke-width:0.999997" />
</svg>
