<?xml version="1.0" encoding="UTF-8" standalone="no"?>
<svg
   xmlns:dc="http://purl.org/dc/elements/1.1/"
   xmlns:cc="http://creativecommons.org/ns#"
   xmlns:rdf="http://www.w3.org/1999/02/22-rdf-syntax-ns#"
   xmlns:svg="http://www.w3.org/2000/svg"
   xmlns="http://www.w3.org/2000/svg"
   xmlns:sodipodi="http://sodipodi.sourceforge.net/DTD/sodipodi-0.dtd"
   xmlns:inkscape="http://www.inkscape.org/namespaces/inkscape"
   width="18"
   height="18"
   viewBox="0 0 18 18"
   fill="none"
   version="1.1"
   id="svg621"
   sodipodi:docname="download.svg"
   inkscape:version="1.0.1 (c497b03c, 2020-09-10)">
  <metadata
     id="metadata627">
    <rdf:RDF>
      <cc:Work
         rdf:about="">
        <dc:format>image/svg+xml</dc:format>
        <dc:type
           rdf:resource="http://purl.org/dc/dcmitype/StillImage" />
        <dc:title></dc:title>
      </cc:Work>
    </rdf:RDF>
  </metadata>
  <defs
     id="defs625" />
  <sodipodi:namedview
     pagecolor="#ffffff"
     bordercolor="#666666"
     borderopacity="1"
     objecttolerance="10"
     gridtolerance="10"
     guidetolerance="10"
     inkscape:pageopacity="0"
     inkscape:pageshadow="2"
     inkscape:window-width="1792"
     inkscape:window-height="1026"
     id="namedview623"
     showgrid="false"
     fit-margin-top="0"
     fit-margin-left="0"
     fit-margin-right="0"
     fit-margin-bottom="0"
     inkscape:zoom="40.9"
     inkscape:cx="9.0625"
     inkscape:cy="9.0625"
     inkscape:window-x="0"
     inkscape:window-y="25"
     inkscape:window-maximized="1"
     inkscape:current-layer="svg621" />
  <path
     d="m 8.3415228,14.003156 c 0.08646,0.0865 0.1890968,0.155023 0.3020524,0.201799 0.1129655,0.04678 0.2340348,0.07091 0.3563056,0.07091 0.1222712,0 0.2433302,-0.02413 0.3563452,-0.07091 0.112916,-0.04678 0.215603,-0.1153 0.302003,-0.201799 l 3.511117,-3.511117 c 0.174588,-0.174588 0.272706,-0.411443 0.272706,-0.658329 0,-0.246984 -0.09812,-0.48374 -0.272706,-0.658328 -0.174587,-0.1746868 -0.411443,-0.272726 -0.658328,-0.272726 -0.246886,0 -0.483741,0.098039 -0.658328,0.272726 L 9.930935,11.097137 V 0.9310345 c 0,-0.2469253 -0.09812,-0.4837407 -0.272706,-0.6583382 C 9.483641,0.0980888 9.246786,0 8.9998808,0 8.7529556,0 8.5161402,0.0980888 8.3415426,0.2726963 8.1669352,0.4472938 8.0688464,0.6841092 8.0688464,0.9310345 V 11.097137 L 6.147072,9.175382 C 5.9724745,9.0006952 5.735659,8.902656 5.4887338,8.902656 5.2418086,8.902656 5.005003,9.000695 4.8303956,9.175382 4.6557981,9.34997 4.5577093,9.586726 4.5577093,9.83371 c 0,0.246886 0.098089,0.483741 0.2726863,0.658329 z"
     fill="#5f504d"
     id="path617"
     style="stroke-width:0.999996" />
  <path
     d="m 17.068966,8.0689655 c -0.246886,0 -0.483741,0.098089 -0.658329,0.2726963 C 16.23605,8.5162593 16.137931,8.7530748 16.137931,9 v 7.137931 H 1.862069 V 9 C 1.862069,8.7530748 1.76398,8.5162593 1.5893727,8.3416618 1.4147752,8.1670544 1.1779597,8.0689655 0.9310345,8.0689655 c -0.2469253,0 -0.4837407,0.098089 -0.6583382,0.2726963 C 0.0980888,8.5162593 0,8.7530748 0,9 v 7.448276 c 0,0.411542 0.1634847,0.806201 0.4544938,1.09728 C 0.745493,17.836535 1.1401821,18 1.5517241,18 H 16.448276 c 0.411542,0 0.806201,-0.163465 1.09728,-0.454444 C 17.836535,17.254477 18,16.859818 18,16.448276 V 9 C 18,8.7530748 17.90188,8.5162593 17.727294,8.3416618 17.552706,8.1670544 17.315851,8.0689655 17.068966,8.0689655 Z"
     fill="#5f504d"
     id="path619"
     style="stroke-width:0.999996" />
</svg>
