<?xml version="1.0" encoding="UTF-8" standalone="no"?>
<svg
   xmlns:dc="http://purl.org/dc/elements/1.1/"
   xmlns:cc="http://creativecommons.org/ns#"
   xmlns:rdf="http://www.w3.org/1999/02/22-rdf-syntax-ns#"
   xmlns:svg="http://www.w3.org/2000/svg"
   xmlns="http://www.w3.org/2000/svg"
   xmlns:sodipodi="http://sodipodi.sourceforge.net/DTD/sodipodi-0.dtd"
   xmlns:inkscape="http://www.inkscape.org/namespaces/inkscape"
   width="18"
   height="12"
   viewBox="0 0 18 12"
   fill="none"
   version="1.1"
   id="svg688"
   sodipodi:docname="email.svg"
   inkscape:version="1.0.1 (c497b03c, 2020-09-10)">
  <metadata
     id="metadata692">
    <rdf:RDF>
      <cc:Work
         rdf:about="">
        <dc:format>image/svg+xml</dc:format>
        <dc:type
           rdf:resource="http://purl.org/dc/dcmitype/StillImage" />
        <dc:title></dc:title>
      </cc:Work>
    </rdf:RDF>
  </metadata>
  <sodipodi:namedview
     pagecolor="#ffffff"
     bordercolor="#666666"
     borderopacity="1"
     objecttolerance="10"
     gridtolerance="10"
     guidetolerance="10"
     inkscape:pageopacity="0"
     inkscape:pageshadow="2"
     inkscape:window-width="1792"
     inkscape:window-height="1026"
     id="namedview690"
     showgrid="false"
     fit-margin-top="0"
     fit-margin-left="0"
     fit-margin-right="0"
     fit-margin-bottom="0"
     inkscape:zoom="40.9"
     inkscape:cx="10"
     inkscape:cy="7"
     inkscape:window-x="0"
     inkscape:window-y="25"
     inkscape:window-maximized="1"
     inkscape:current-layer="svg688" />
  <g
     clip-path="url(#clip0)"
     id="g681"
     transform="matrix(0.9,0,0,0.86206897,0,-2.5862069)"
     style="stroke-width:1.13529">
    <path
       d="M 1.92,3 C 0.855,3 0,3.89626 0,4.97251 V 14.94 c 0,1.0762 0.855,1.98 1.92,1.98 h 16.32 c 1.065,0 1.92,-0.9038 1.92,-1.98 V 4.97251 C 20.16,3.89626 19.305,3 18.24,3 Z m 0,0.96 h 16.32 c 0.1406,0 0.2775,0.03469 0.3975,0.09 l -7.9349,7.3426 c -0.3665,0.3393 -0.85499,0.3393 -1.2225,0 L 1.5301,4.05 C 1.64916,3.99656 1.78135,3.96 1.9201,3.96 Z m -0.945,0.885 5.63256,5.2051 -5.52744,5.3775 c -0.07313,-0.1444 -0.12,-0.3075 -0.12,-0.4875 V 4.97263 c 0,-0.04406 0.010312,-0.08531 0.015,-0.1275 z m 18.21,0.0075 c 0.0047,0.04031 0.015,0.07875 0.015,0.12 v 9.9674 c 0,0.1763 -0.0422,0.3385 -0.1125,0.48 l -5.5126,-5.3774 z m -6.3074,5.8349 5.3925,5.2725 h -0.03 -16.31998 -0.0225 l 5.41488,-5.2651 1.515,1.4025 c 0.71251,0.6582 1.815,0.6591 2.5274,0 z"
       fill="#978b87"
       id="path679"
       style="stroke-width:1.1967" />
  </g>
  <defs
     id="defs686">
    <clipPath
       id="clip0">
      <rect
         width="20"
         height="20"
         fill="#ffffff"
         id="rect683"
         x="0"
         y="0" />
    </clipPath>
  </defs>
</svg>
