<svg width="15" height="15" viewBox="0 0 15 15" fill="none" xmlns="http://www.w3.org/2000/svg">
<g clip-path="url(#clip0)">
<path d="M7.49978 4.5C8.48357 4.5 9.31973 3.86837 9.62558 2.9889L9.66249 2.99476L9.7498 3.00003H14.2498C14.6641 3.00003 14.9998 2.66429 14.9998 2.25003C14.9998 1.86566 14.7103 1.54866 14.3371 1.50531L14.2498 1.50004H9.74979C9.7076 1.50004 9.666 1.50355 9.62557 1.51058C9.31971 0.631676 8.48358 8.4877e-05 7.49977 8.4877e-05C6.51597 8.4877e-05 5.67982 0.631721 5.37397 1.51119L5.33706 1.50533L5.24976 1.50005H0.749756C0.335501 1.50005 -0.000244141 1.8358 -0.000244141 2.25005C-0.000244141 2.63443 0.289211 2.95142 0.662456 2.99477L0.74976 3.00005H5.24976C5.29195 3.00005 5.33355 2.99653 5.37398 2.9895C5.67984 3.86841 6.51597 4.5 7.49978 4.5ZM7.49978 3C7.08552 3 6.74978 2.66425 6.74978 2.25C6.74978 1.83574 7.08552 1.5 7.49978 1.5C7.91403 1.5 8.24978 1.83574 8.24978 2.25C8.24978 2.66425 7.91403 3 7.49978 3ZM2.24978 9.75C3.23357 9.75 4.06973 9.11836 4.37558 8.2389L4.41249 8.24476L4.4998 8.25003H14.2498C14.6641 8.25003 14.9998 7.91429 14.9998 7.50003C14.9998 7.11566 14.7103 6.79866 14.3371 6.75531L14.2498 6.75004H4.49979C4.4576 6.75004 4.416 6.75356 4.37557 6.76059C4.06971 5.88168 3.23358 5.25009 2.24977 5.25009C1.00699 5.25009 -0.000226141 6.25731 -0.000226141 7.50009C-0.000226141 8.74287 1.00699 9.75009 2.24977 9.75009L2.24978 9.75ZM2.24978 8.25C1.83552 8.25 1.49978 7.91425 1.49978 7.5C1.49978 7.08574 1.83552 6.75 2.24978 6.75C2.66403 6.75 2.99978 7.08574 2.99978 7.5C2.99978 7.91425 2.66403 8.25 2.24978 8.25ZM10.4998 15C11.4836 15 12.3197 14.3684 12.6256 13.4889L12.6625 13.4948L12.7498 13.5H14.2498C14.6641 13.5 14.9998 13.1643 14.9998 12.75C14.9998 12.3657 14.7103 12.0487 14.3371 12.0053L14.2498 12H12.7498C12.7076 12 12.666 12.0036 12.6256 12.0106C12.3197 11.1317 11.4836 10.5001 10.4998 10.5001C9.51597 10.5001 8.67982 11.1317 8.37397 12.0112L8.33706 12.0053L8.24975 12.0001H0.749756C0.335501 12.0001 -0.000244141 12.3358 -0.000244141 12.7501C-0.000244141 13.1344 0.289211 13.4514 0.662456 13.4948L0.74976 13.5H8.24976C8.29195 13.5 8.33355 13.4965 8.37398 13.4895C8.67984 14.3684 9.51597 15 10.4998 15V15ZM10.4998 13.5C10.0855 13.5 9.74978 13.1643 9.74978 12.75C9.74978 12.3357 10.0855 12 10.4998 12C10.914 12 11.2498 12.3357 11.2498 12.75C11.2498 13.1643 10.914 13.5 10.4998 13.5Z" fill="black"/>
</g>
<defs>
<clipPath id="clip0">
<rect width="15" height="15" fill="white" transform="matrix(1 0 0 -1 0 15)"/>
</clipPath>
</defs>
</svg>
