<svg width="23" height="24" fill="none" xmlns="http://www.w3.org/2000/svg"><path d="M4.986 14.141l-.783 3.04-2.862.064A12.019 12.019 0 010 11.7c0-1.94.454-3.77 1.258-5.38l2.549.485L4.923 9.44a7.207 7.207 0 00-.36 2.26c0 .859.149 1.682.423 2.441z" fill="#FBBB00"/><path d="M22.304 9.514c.129.708.196 1.44.196 2.186 0 .838-.084 1.655-.246 2.443a11.774 11.774 0 01-3.96 6.681h-.001l-3.21-.17-.455-2.95a6.91 6.91 0 002.885-3.561h-6.015V9.514H22.304z" fill="#518EF8"/><path d="M18.293 20.823v.001c-1.928 1.612-4.377 2.576-7.043 2.576-4.284 0-8.009-2.49-9.91-6.155l3.647-3.104c.95 2.637 3.396 4.514 6.263 4.514a6.458 6.458 0 003.378-.951l3.665 3.12z" fill="#28B446"/><path d="M18.43 2.694l-3.644 3.103a6.462 6.462 0 00-3.536-1.052c-2.932 0-5.424 1.963-6.327 4.695L1.258 6.32C3.13 2.564 6.902 0 11.25 0c2.73 0 5.232 1.011 7.18 2.694z" fill="#F14336"/></svg>