<?xml version="1.0" encoding="UTF-8" standalone="no"?>
<svg
   xmlns:dc="http://purl.org/dc/elements/1.1/"
   xmlns:cc="http://creativecommons.org/ns#"
   xmlns:rdf="http://www.w3.org/1999/02/22-rdf-syntax-ns#"
   xmlns:svg="http://www.w3.org/2000/svg"
   xmlns="http://www.w3.org/2000/svg"
   xmlns:sodipodi="http://sodipodi.sourceforge.net/DTD/sodipodi-0.dtd"
   xmlns:inkscape="http://www.inkscape.org/namespaces/inkscape"
   width="17.999998"
   height="16"
   viewBox="0 0 17.999998 16"
   fill="none"
   version="1.1"
   id="svg789"
   sodipodi:docname="hide.svg"
   inkscape:version="1.0.1 (c497b03c, 2020-09-10)">
  <metadata
     id="metadata795">
    <rdf:RDF>
      <cc:Work
         rdf:about="">
        <dc:format>image/svg+xml</dc:format>
        <dc:type
           rdf:resource="http://purl.org/dc/dcmitype/StillImage" />
        <dc:title></dc:title>
      </cc:Work>
    </rdf:RDF>
  </metadata>
  <defs
     id="defs793" />
  <sodipodi:namedview
     pagecolor="#ffffff"
     bordercolor="#666666"
     borderopacity="1"
     objecttolerance="10"
     gridtolerance="10"
     guidetolerance="10"
     inkscape:pageopacity="0"
     inkscape:pageshadow="2"
     inkscape:window-width="1792"
     inkscape:window-height="1026"
     id="namedview791"
     showgrid="false"
     fit-margin-top="0"
     fit-margin-left="0"
     fit-margin-right="0"
     fit-margin-bottom="0"
     inkscape:zoom="34.083333"
     inkscape:cx="8.9999975"
     inkscape:cy="7.8140101"
     inkscape:window-x="0"
     inkscape:window-y="25"
     inkscape:window-maximized="1"
     inkscape:current-layer="svg789" />
  <path
     d="m 15.332298,4.99502 c -1.794599,-1.5234 -3.988799,-2.72827 -6.3323,-2.72827 -2.34422,0 -4.53846,1.20554 -6.33234,2.72827 -1.56319,1.32693 -2.52629995,2.6392301 -2.56651995,2.69443 -0.13485,0.185 -0.13485,0.4360001 0,0.6211001 0.04026,0.0552 1.00332995,1.3675 2.56651995,2.6943999 1.79472,1.5234 3.98886,2.7283 6.33234,2.7283 2.344101,0 4.5384,-1.2055 6.3323,-2.7283 1.5632,-1.3269 2.5263,-2.6392 2.5666,-2.6944 0.1348,-0.1851 0.1348,-0.4361 0,-0.6211 -0.0403,-0.0552 -1.0034,-1.3675 -2.5666,-2.69443 z m -0.7005,5.22113 c -1.327499,1.1233 -3.382099,2.4624 -5.6318,2.4624 -2.24968,0 -4.30432,-1.3391 -5.63179,-2.4624 -1.03485,-0.8757 -1.80309,-1.7621 -2.17163,-2.2162 0.36861,-0.4541 1.13685,-1.3405 2.17163,-2.2162 1.32747,-1.12332 3.38211,-2.46235 5.63179,-2.46235 2.249701,0 4.3043,1.33903 5.6318,2.46235 1.0348,0.8756 1.803,1.762 2.1716,2.2162 -0.3686,0.4542 -1.1368,1.3406 -2.1716,2.2162 z"
     fill="#5f504d"
     id="path783" />
  <path
     d="m 9.0000138,4.91875 c -1.6991,0 -3.08133,1.3822 -3.08133,3.0813001 0,1.699 1.38223,3.0811999 3.08133,3.0811999 1.6990992,0 3.0813002,-1.3821999 3.0813002,-3.0811999 0,-1.6991 -1.382201,-3.0813001 -3.0813002,-3.0813001 z m 0,5.1079 c -1.1175,0 -2.02664,-0.9091 -2.02664,-2.0266 0,-1.1175 0.90914,-2.02661 2.02664,-2.02661 1.1175002,0 2.0266992,0.90911 2.0266992,2.02661 0,1.1175 -0.909199,2.0266 -2.0266992,2.0266 z"
     fill="#5f504d"
     id="path785" />
  <line
     x1="13.242754"
     y1="0.92874432"
     x2="4.7572446"
     y2="15.071256"
     stroke="#5f504d"
     stroke-linecap="round"
     id="line787" />
</svg>
