<svg width="29" height="29" viewBox="0 0 29 29" fill="none" xmlns="http://www.w3.org/2000/svg">
<path fill-rule="evenodd" clip-rule="evenodd" d="M0 14.5C0 6.49187 6.49187 0 14.5 0C22.5081 0 29 6.49187 29 14.5C29 22.5081 22.5081 29 14.5 29C6.49187 29 0 22.5081 0 14.5ZM14.5007 6.76667C12.4005 6.76667 12.1369 6.77585 11.312 6.81339C10.4887 6.85109 9.92673 6.98143 9.43502 7.17267C8.92638 7.37019 8.49492 7.63442 8.06507 8.06443C7.6349 8.49428 7.37068 8.92574 7.17251 9.43421C6.98079 9.92609 6.85028 10.4882 6.81323 11.3112C6.77633 12.1361 6.76667 12.3998 6.76667 14.5001C6.76667 16.6003 6.77601 16.8631 6.81339 17.688C6.85125 18.5113 6.98159 19.0733 7.17267 19.565C7.37036 20.0736 7.63458 20.5051 8.06459 20.9349C8.49428 21.3651 8.92574 21.63 9.43405 21.8275C9.92609 22.0187 10.4882 22.1491 11.3113 22.1868C12.1362 22.2243 12.3997 22.2335 14.4998 22.2335C16.6002 22.2335 16.863 22.2243 17.6879 22.1868C18.5111 22.1491 19.0738 22.0187 19.5658 21.8275C20.0743 21.63 20.5051 21.3651 20.9348 20.9349C21.3649 20.5051 21.6292 20.0736 21.8273 19.5651C22.0174 19.0733 22.1479 18.5111 22.1866 17.6882C22.2237 16.8633 22.2333 16.6003 22.2333 14.5001C22.2333 12.3998 22.2237 12.1362 22.1866 11.3113C22.1479 10.4881 22.0174 9.92609 21.8273 9.43437C21.6292 8.92574 21.3649 8.49428 20.9348 8.06443C20.5046 7.63426 20.0744 7.37003 19.5653 7.17267C19.0723 6.98143 18.51 6.85109 17.6867 6.81339C16.8618 6.77585 16.5992 6.76667 14.4983 6.76667H14.5007Z" fill="#009845"/>
<path fill-rule="evenodd" clip-rule="evenodd" d="M13.807 8.16029C14.0129 8.15997 14.2426 8.16029 14.5007 8.16029C16.5655 8.16029 16.8103 8.1677 17.6257 8.20476C18.3797 8.23924 18.7889 8.36523 19.0615 8.47108C19.4224 8.61125 19.6797 8.7788 19.9502 9.04947C20.2209 9.32014 20.3884 9.57792 20.5289 9.93882C20.6348 10.2111 20.7609 10.6203 20.7952 11.3743C20.8323 12.1896 20.8404 12.4345 20.8404 14.4983C20.8404 16.5622 20.8323 16.8071 20.7952 17.6223C20.7608 18.3763 20.6348 18.7855 20.5289 19.0578C20.3888 19.4187 20.2209 19.6757 19.9502 19.9462C19.6795 20.2168 19.4226 20.3844 19.0615 20.5246C18.7892 20.6309 18.3797 20.7566 17.6257 20.7911C16.8104 20.8281 16.5655 20.8362 14.5007 20.8362C12.4357 20.8362 12.191 20.8281 11.3758 20.7911C10.6218 20.7563 10.2125 20.6303 9.93978 20.5244C9.57889 20.3842 9.32111 20.2167 9.05044 19.946C8.77977 19.6753 8.61221 19.4182 8.47172 19.0572C8.36587 18.7849 8.23972 18.3757 8.2054 17.6216C8.16835 16.8064 8.16094 16.5615 8.16094 14.4964C8.16094 12.4312 8.16835 12.1876 8.2054 11.3724C8.23988 10.6184 8.36587 10.2092 8.47172 9.93656C8.61189 9.57567 8.77977 9.31789 9.05044 9.04722C9.32111 8.77655 9.57889 8.60899 9.93978 8.4685C10.2124 8.36217 10.6218 8.2365 11.3758 8.20186C12.0892 8.16964 12.3657 8.15997 13.807 8.15836V8.16029ZM18.6288 9.44436C18.1164 9.44436 17.7007 9.85955 17.7007 10.372C17.7007 10.8844 18.1164 11.3001 18.6288 11.3001C19.1411 11.3001 19.5568 10.8844 19.5568 10.372C19.5568 9.85971 19.1411 9.44436 18.6288 9.44436ZM14.5007 10.5287C12.3075 10.5287 10.5293 12.3069 10.5293 14.5001C10.5293 16.6933 12.3075 18.4707 14.5007 18.4707C16.694 18.4707 18.4715 16.6933 18.4715 14.5001C18.4715 12.3069 16.694 10.5287 14.5007 10.5287Z" fill="#009845"/>
<path fill-rule="evenodd" clip-rule="evenodd" d="M14.5007 11.9223C15.9243 11.9223 17.0785 13.0763 17.0785 14.5001C17.0785 15.9237 15.9243 17.0779 14.5007 17.0779C13.077 17.0779 11.9229 15.9237 11.9229 14.5001C11.9229 13.0763 13.077 11.9223 14.5007 11.9223Z" fill="#009845"/>
</svg>
