<svg width="14" height="14" viewBox="0 0 14 14" fill="none" xmlns="http://www.w3.org/2000/svg">
<g clip-path="url(#clip0)">
<path d="M5.80409 10.6708L4.1544 12.3205C3.47047 13.0044 2.36291 13.0044 1.67956 12.3206C0.996068 11.6371 0.996068 10.5294 1.67942 9.84609L4.97937 6.54615C5.66272 5.86277 6.77039 5.86277 7.45374 6.54615C7.68155 6.77395 8.05091 6.77395 8.27871 6.54615C8.50651 6.31835 8.50651 5.94898 8.27871 5.72118C7.13973 4.5822 5.29338 4.5822 4.1544 5.72118L0.854482 9.0211C-0.284502 10.1601 -0.284502 12.0064 0.854482 13.1454C1.99333 14.285 3.83981 14.285 4.97939 13.1454L6.62908 11.4957C6.85688 11.2679 6.85688 10.8986 6.62908 10.6708C6.40128 10.443 6.03189 10.443 5.80409 10.6708Z" fill="#978B87"/>
<path d="M13.1456 0.854237C12.0066 -0.284746 10.1597 -0.284746 9.02072 0.854237L7.04146 2.8335C6.81365 3.0613 6.81365 3.43066 7.04146 3.65846C7.26926 3.88627 7.63862 3.88627 7.86642 3.65846L9.84568 1.6792C10.529 0.995824 11.6373 0.995824 12.3207 1.6792C13.004 2.36255 13.004 3.47023 12.3207 4.15358L8.69114 7.78313C8.00776 8.46651 6.90012 8.46651 6.21676 7.78313C5.98896 7.55533 5.6196 7.55533 5.3918 7.78313C5.164 8.01093 5.164 8.38029 5.3918 8.6081C6.53078 9.74708 8.37712 9.74708 9.51611 8.6081L13.1456 4.97857C14.2846 3.83959 14.2846 1.99322 13.1456 0.854237Z" fill="#978B87"/>
</g>
<defs>
<clipPath id="clip0">
<rect width="14" height="14" fill="white"/>
</clipPath>
</defs>
</svg>
