<svg width="21" height="21" viewBox="0 0 21 21" fill="none" xmlns="http://www.w3.org/2000/svg">
<circle cx="10.5" cy="10.5" r="9" stroke="white" stroke-opacity="0.7" stroke-width="3"/>
<mask id="path-2-inside-1" fill="white">
<path d="M21 10.5C21 9.12112 20.7284 7.75574 20.2007 6.48182C19.6731 5.20791 18.8996 4.05039 17.9246 3.07538C16.9496 2.10036 15.7921 1.32694 14.5182 0.799265C13.2443 0.27159 11.8789 -6.02727e-08 10.5 0V2.95808C11.4904 2.95808 12.4711 3.15316 13.3862 3.53218C14.3012 3.91119 15.1326 4.46673 15.8329 5.16706C16.5333 5.86739 17.0888 6.69881 17.4678 7.61383C17.8468 8.52886 18.0419 9.50958 18.0419 10.5H21Z"/>
</mask>
<path d="M21 10.5C21 9.12112 20.7284 7.75574 20.2007 6.48182C19.6731 5.20791 18.8996 4.05039 17.9246 3.07538C16.9496 2.10036 15.7921 1.32694 14.5182 0.799265C13.2443 0.27159 11.8789 -6.02727e-08 10.5 0V2.95808C11.4904 2.95808 12.4711 3.15316 13.3862 3.53218C14.3012 3.91119 15.1326 4.46673 15.8329 5.16706C16.5333 5.86739 17.0888 6.69881 17.4678 7.61383C17.8468 8.52886 18.0419 9.50958 18.0419 10.5H21Z" stroke="white" stroke-width="6" mask="url(#path-2-inside-1)"/>
</svg>
