<?xml version="1.0" encoding="UTF-8" standalone="no"?>
<svg
   xmlns:dc="http://purl.org/dc/elements/1.1/"
   xmlns:cc="http://creativecommons.org/ns#"
   xmlns:rdf="http://www.w3.org/1999/02/22-rdf-syntax-ns#"
   xmlns:svg="http://www.w3.org/2000/svg"
   xmlns="http://www.w3.org/2000/svg"
   xmlns:sodipodi="http://sodipodi.sourceforge.net/DTD/sodipodi-0.dtd"
   xmlns:inkscape="http://www.inkscape.org/namespaces/inkscape"
   width="50"
   height="50"
   viewBox="0 0 50 50"
   fill="none"
   version="1.1"
   id="svg1012"
   sodipodi:docname="magnifying-glass.svg"
   inkscape:version="1.0.1 (c497b03c, 2020-09-10)">
  <metadata
     id="metadata1016">
    <rdf:RDF>
      <cc:Work
         rdf:about="">
        <dc:format>image/svg+xml</dc:format>
        <dc:type
           rdf:resource="http://purl.org/dc/dcmitype/StillImage" />
        <dc:title></dc:title>
      </cc:Work>
    </rdf:RDF>
  </metadata>
  <sodipodi:namedview
     pagecolor="#ffffff"
     bordercolor="#666666"
     borderopacity="1"
     objecttolerance="10"
     gridtolerance="10"
     guidetolerance="10"
     inkscape:pageopacity="0"
     inkscape:pageshadow="2"
     inkscape:window-width="1792"
     inkscape:window-height="1026"
     id="namedview1014"
     showgrid="false"
     inkscape:zoom="11.023977"
     inkscape:cx="27.402537"
     inkscape:cy="20.871949"
     inkscape:window-x="0"
     inkscape:window-y="25"
     inkscape:window-maximized="1"
     inkscape:current-layer="svg1012"
     fit-margin-top="0"
     fit-margin-left="0"
     fit-margin-right="0"
     fit-margin-bottom="0" />
  <g
     clip-path="url(#clip0)"
     id="g1005"
     transform="scale(0.97276262)"
     style="stroke-width:1.028">
    <path
       d="m 23.0293,28.3708 c 2.4255,2.4255 5.6142,3.7337 9.0481,3.7337 3.4067,0 6.6226,-1.3354 9.0209,-3.7337 2.4255,-2.4256 3.7337,-5.6142 3.7337,-9.0482 0,-3.4066 -1.3354,-6.6226 -3.7337,-9.0481 C 38.7,7.87619 35.4841,6.54077 32.0501,6.54077 c -3.4066,0 -6.6225,1.33542 -9.0208,3.73373 -2.3983,2.3983 -3.7338,5.6142 -3.7338,9.0481 0,3.434 1.3355,6.6499 3.7338,9.0482 z m -1.2537,-9.0482 c 0,-2.7526 1.0629,-5.3416 3.0251,-7.2766 1.935,-1.935 4.5241,-2.99791 7.2767,-2.99791 2.7526,0 5.3417,1.06291 7.2767,2.99791 1.935,1.935 3.0251,4.524 3.0251,7.2766 0,2.7526 -1.0629,5.3417 -3.0251,7.2767 -1.935,1.935 -4.5241,3.0251 -7.2767,3.0251 -2.7526,0 -5.3417,-1.0628 -7.2767,-3.0251 -1.9622,-1.935 -3.0251,-4.5241 -3.0251,-7.2767 z"
       fill="#5f504d"
       id="path999"
       style="stroke-width:1.05678" />
    <path
       d="M 45.7589,5.66872 C 42.107,2.01675 37.2286,0 32.0777,0 26.8996,0 22.0484,2.01675 18.3965,5.66872 12.21,11.8552 10.9563,21.503 15.3713,29.0794 c 0.1091,0.1635 0.0546,0.4088 -0.109,0.5178 -0.0272,0.0273 -0.0817,0.0545 -0.1362,0.0818 -0.0273,0 -0.0545,0.0273 -0.0818,0.0545 L 1.28132,43.4692 c -1.771475,1.7715 -1.716968,4.7149 0.10901,6.5409 0.89937,0.8993 2.09852,1.4171 3.37943,1.4171 1.19915,0 2.31654,-0.4633 3.1614,-1.3081 L 21.6941,36.3561 c 0,-0.0273 0.0273,-0.0273 0.0546,-0.0818 0.0272,-0.0272 0.0545,-0.0817 0.0817,-0.109 0.109,-0.1635 0.3543,-0.218 0.5178,-0.109 2.9707,1.717 6.3228,2.6436 9.7295,2.6436 5.1782,0 10.0293,-2.0168 13.6812,-5.6687 3.652,-3.652 5.6688,-8.5031 5.6688,-13.6813 C 51.4004,14.1718 49.4109,9.29342 45.7589,5.66872 Z M 16.8975,31.5322 v -0.1362 0.1362 c 0.1363,0 0.2181,0.0545 0.2998,0.1363 0.4361,0.5178 0.8176,0.9539 1.1992,1.3354 0.3815,0.3816 0.8176,0.7904 1.3354,1.1992 0.0818,0.0817 0.1363,0.1635 0.1363,0.2725 0,0.109 -0.0273,0.218 -0.109,0.2998 l -1.935,1.935 c -0.1363,0.1363 -0.4088,0.1363 -0.5451,0 L 14.69,34.1213 c -0.0817,-0.0817 -0.109,-0.1635 -0.109,-0.2725 0,-0.109 0.0545,-0.1908 0.109,-0.2726 l 1.935,-1.935 c 0.0545,-0.0545 0.1635,-0.109 0.2725,-0.109 z M 20.1407,7.41294 c 3.1887,-3.18866 7.4129,-4.93288 11.9098,-4.93288 4.4968,0 8.7483,1.74422 11.9097,4.93288 6.5681,6.56806 6.5681,17.27866 0,23.84676 -3.1886,3.1887 -7.4129,4.9329 -11.9097,4.9329 -4.4969,0 -8.7484,-1.7442 -11.9098,-4.9329 -6.5681,-6.5681 -6.5681,-17.2787 0,-23.84676 z M 12.3735,35.8928 c 0.0817,-0.0818 0.1635,-0.109 0.2725,-0.109 0.109,0 0.1908,0.0272 0.2725,0.109 l 2.5891,2.5891 c 0.0818,0.0817 0.109,0.1635 0.109,0.2725 0,0.109 -0.0272,0.1908 -0.109,0.2725 l -9.32066,9.3207 c -0.3543,0.3543 -0.84486,0.5451 -1.38993,0.5451 -0.59957,0 -1.19915,-0.2453 -1.60795,-0.6814 C 2.78026,47.8025 2.53498,47.2575 2.50772,46.6852 2.48047,46.1128 2.6985,45.595 3.08005,45.2135 Z"
       fill="#5f504d"
       id="path1001"
       style="stroke-width:1.05678" />
    <path
       d="m 33.2767,14.4715 c 2.0167,0 3.6519,1.6352 3.6519,3.652 0,0.6813 0.5723,1.2536 1.2537,1.2536 0.6813,0 1.2536,-0.5723 1.2536,-1.2536 0,-3.3794 -2.7526,-6.132 -6.132,-6.132 -0.6813,0 -1.2536,0.545 -1.2536,1.2536 -0.0273,0.6813 0.545,1.2264 1.2264,1.2264 z"
       fill="#5f504d"
       id="path1003"
       style="stroke-width:1.05678" />
  </g>
  <defs
     id="defs1010">
    <clipPath
       id="clip0">
      <rect
         width="51.400002"
         height="51.400002"
         fill="#ffffff"
         id="rect1007"
         x="0"
         y="0" />
    </clipPath>
  </defs>
</svg>
