<?xml version="1.0" encoding="UTF-8" standalone="no"?>
<svg
   xmlns:dc="http://purl.org/dc/elements/1.1/"
   xmlns:cc="http://creativecommons.org/ns#"
   xmlns:rdf="http://www.w3.org/1999/02/22-rdf-syntax-ns#"
   xmlns:svg="http://www.w3.org/2000/svg"
   xmlns="http://www.w3.org/2000/svg"
   xmlns:sodipodi="http://sodipodi.sourceforge.net/DTD/sodipodi-0.dtd"
   xmlns:inkscape="http://www.inkscape.org/namespaces/inkscape"
   width="19"
   height="24"
   viewBox="0 0 19.000001 24"
   fill="none"
   version="1.1"
   id="svg1050"
   sodipodi:docname="pdf.svg"
   inkscape:version="1.0.1 (c497b03c, 2020-09-10)">
  <metadata
     id="metadata1056">
    <rdf:RDF>
      <cc:Work
         rdf:about="">
        <dc:format>image/svg+xml</dc:format>
        <dc:type
           rdf:resource="http://purl.org/dc/dcmitype/StillImage" />
        <dc:title></dc:title>
      </cc:Work>
    </rdf:RDF>
  </metadata>
  <defs
     id="defs1054" />
  <sodipodi:namedview
     pagecolor="#ffffff"
     bordercolor="#666666"
     borderopacity="1"
     objecttolerance="10"
     gridtolerance="10"
     guidetolerance="10"
     inkscape:pageopacity="0"
     inkscape:pageshadow="2"
     inkscape:window-width="1792"
     inkscape:window-height="1026"
     id="namedview1052"
     showgrid="false"
     fit-margin-top="0"
     fit-margin-left="0"
     fit-margin-right="0"
     fit-margin-bottom="0"
     inkscape:zoom="34.083333"
     inkscape:cx="9.23071"
     inkscape:cy="12"
     inkscape:window-x="0"
     inkscape:window-y="25"
     inkscape:window-maximized="1"
     inkscape:current-layer="svg1050"
     inkscape:document-rotation="0" />
  <path
     d="m 9.0384686,11.8187 c -0.2202,0 -0.3616,0.0208 -0.4462,0.0416 l 10e-4,3.0864 c 0.0836,0.0208 0.2192,0.0208 0.3423,0.0208 0.8913,0.0073 1.4721004,-0.525 1.4721004,-1.652 0.0067,-0.9792 -0.5231004,-1.4969 -1.3692004,-1.4969 z"
     fill="#000000"
     id="path1044" />
  <path
     d="m 6.08749,12.4967 c 0,-0.4344 -0.27788,-0.6927 -0.76826,-0.6927 -0.2,0 -0.33558,0.0208 -0.40672,0.0416 v 1.3927 c 0.08365,0.0209 0.1875,0.0282 0.32979,0.0282 0.52212,0 0.84519,-0.2865 0.84519,-0.7698 z"
     fill="#000000"
     id="path1046" />
  <path
     d="M 13.042405,0.752075 C 12.505805,0.170826 12.125005,0 11.365405,0 H 1.742365 C 0.684675,0 0.269295,0.449997 0.269295,1.59583 V 22.404 c 0,1.1458 0.41538,1.5958 1.47307,1.5958 h 15.51524 c 1.0577,0 1.4731,-0.45 1.4731,-1.5958 V 7.97792 c 0,-0.8229 -0.1577,-1.23436 -0.6943,-1.81561 z m 4.3999,21.427025 c 0,0.3052 -0.1106,0.4251 -0.3933,0.4251 H 1.950065 c -0.28172,0 -0.39327,-0.1198 -0.39327,-0.4251 l 9.6e-4,-5.1623 h 15.88445 z M 4.045245,15.7512 v -4.6531 c 0.30385,-0.0562 0.72979,-0.0979 1.33075,-0.0979 0.60671,0 1.03943,0.1261 1.33075,0.3771 0.27788,0.2375 0.46537,0.6302 0.46537,1.0917 0,0.4615 -0.1423,0.8541 -0.4,1.1198 -0.33557,0.3427 -0.83364,0.4969 -1.41441,0.4969 -0.12885,0 -0.24519,-0.0073 -0.33558,-0.0209 v 1.6865 z m 3.75286,-0.0208 v -4.6323 c 0.3615,-0.0625 0.8327,-0.0979 1.3307,-0.0979 0.827,0 1.3625,0.1615 1.7827,0.5042 0.4519,0.3635 0.7365,0.9447 0.7365,1.777 0,0.9021 -0.3038,1.525 -0.723,1.9104 -0.4587,0.4126 -1.1558,0.6084 -2.0087,0.6084 -0.5105,0 -0.8731,-0.0354 -1.1182,-0.0698 z m 7.0471,-2.7438 v 0.8677 h -1.5635 v 1.8969 h -0.9884 v -4.7157 h 2.6614 v 0.875 h -1.6731 v 1.0771 h 1.5634 z m 2.5971,-3.20315 H 1.557875 V 1.8211 c 0,-0.3052 0.11058,-0.42501 0.39328,-0.42501 h 9.80865 c 0.1404,0 0.1962,0.06042 0.1962,0.2125 V 5.7451 c 0,1.14583 0.4154,1.59583 1.4731,1.59583 h 3.8183 c 0.1413,0 0.1961,0.06042 0.1961,0.2125 z"
     fill="#000000"
     id="path1048" />
</svg>
