<?xml version="1.0" encoding="UTF-8" standalone="no"?>
<svg
   xmlns:dc="http://purl.org/dc/elements/1.1/"
   xmlns:cc="http://creativecommons.org/ns#"
   xmlns:rdf="http://www.w3.org/1999/02/22-rdf-syntax-ns#"
   xmlns:svg="http://www.w3.org/2000/svg"
   xmlns="http://www.w3.org/2000/svg"
   xmlns:sodipodi="http://sodipodi.sourceforge.net/DTD/sodipodi-0.dtd"
   xmlns:inkscape="http://www.inkscape.org/namespaces/inkscape"
   width="12"
   height="14"
   viewBox="0 0 12 14"
   fill="none"
   version="1.1"
   id="svg1197"
   sodipodi:docname="saftey.svg"
   inkscape:version="1.0.1 (c497b03c, 2020-09-10)">
  <metadata
     id="metadata1203">
    <rdf:RDF>
      <cc:Work
         rdf:about="">
        <dc:format>image/svg+xml</dc:format>
        <dc:type
           rdf:resource="http://purl.org/dc/dcmitype/StillImage" />
        <dc:title></dc:title>
      </cc:Work>
    </rdf:RDF>
  </metadata>
  <defs
     id="defs1201" />
  <sodipodi:namedview
     pagecolor="#ffffff"
     bordercolor="#666666"
     borderopacity="1"
     objecttolerance="10"
     gridtolerance="10"
     guidetolerance="10"
     inkscape:pageopacity="0"
     inkscape:pageshadow="2"
     inkscape:window-width="1792"
     inkscape:window-height="998"
     id="namedview1199"
     showgrid="false"
     showguides="true"
     inkscape:guide-bbox="true"
     inkscape:zoom="18.99081"
     inkscape:cx="7.4350226"
     inkscape:cy="4.0822357"
     inkscape:window-x="0"
     inkscape:window-y="25"
     inkscape:window-maximized="0"
     inkscape:current-layer="svg1197" />
  <path
     id="path1237"
     style="fill:#000000;stroke-width:0.999988"
     d="M 5.9988617,0 C 5.8731299,8.1763015e-6 5.7473687,0.04726427 5.6503556,0.13973383 4.2937045,1.4326732 2.666876,2.0339035 0.5291279,2.0339035 c -0.2760751,0 -0.5001288,0.2195955 -0.5001288,0.4901773 0,0.3454458 -0.00614,0.7021863 -0.013578,1.0801647 C -0.05310289,7.1211562 -0.14727989,11.938535 5.8359239,13.971165 5.8889789,13.989189 5.9435411,14 5.9988617,14 6.0541887,14 6.1110789,13.98921 6.1640626,13.97116 12.147728,11.938464 12.053084,7.1212164 11.984565,3.6042405 c -0.0074,-0.3779131 -0.01358,-0.7347841 -0.01358,-1.0801647 0,-0.2705819 -0.223989,-0.4901773 -0.500129,-0.4901773 -2.1378841,0 -3.7667101,-0.6012303 -5.123491,-1.89416967 C 6.2503175,0.0472312 6.1245924,-8.1720593e-6 5.9988617,0 Z m 0.00226,1.5481621 c 1.2802312,1.0929555 2.7736192,1.6483006 4.6437293,1.7256017 0.0025,0.1882199 0.0073,0.3786368 0.01135,0.5766794 0.06421,3.3019902 0.137721,7.0391998 -4.6550833,8.7455638 C 1.2086015,10.889704 1.2817755,7.1523114 1.3460803,3.8504432 1.3499803,3.6522787 1.3525303,3.4620445 1.3551303,3.2737638 3.2251169,3.1964022 4.7210158,2.6411176 6.0011217,1.5481621 Z M 8.2777259,4.799746 c -0.1825773,0 -0.365348,0.06743 -0.5046548,0.2040558 L 4.9601327,7.7629903 4.1952299,7.0133073 c -0.2786135,-0.27307 -0.7306843,-0.27307 -1.0093095,0 -0.2784283,0.2730812 -0.2784283,0.7163385 0,0.9892266 l 1.2695575,1.2442964 c 0.1393068,0.1365353 0.3221181,0.2040556 0.5046548,0.2040556 0.1825252,0 0.3653481,-0.06752 0.5046549,-0.2040556 L 8.7823839,5.9930284 c 0.278428,-0.2730812 0.278428,-0.7163271 0,-0.9892266 C 8.6430769,4.8671759 8.4603059,4.799746 8.2777289,4.799746 Z" />
</svg>
