<svg width="18" height="18" viewBox="0 0 18 18" fill="none" xmlns="http://www.w3.org/2000/svg">
<path d="M17.7225 16.3828C18.0925 16.7529 18.0925 17.3524 17.7225 17.7225C17.3524 18.0925 16.7529 18.0925 16.3828 17.7225L11.7477 13.0892C11.5645 12.9042 11.237 12.8783 11.0298 13.0226C11.0298 13.0226 10.9003 13.1207 10.6264 13.278C9.58841 13.8719 8.38568 14.2106 7.10526 14.2106C3.18069 14.2106 0 11.0299 0 7.10529C0 3.18071 3.18069 0 7.10526 0C11.0298 0 14.2105 3.18071 14.2105 7.10529C14.2105 8.39499 13.8664 9.60507 13.2669 10.6468C13.1114 10.9151 13.0263 11.0243 13.0263 11.0243C12.8764 11.239 12.9042 11.5646 13.0892 11.7478L17.7225 16.3828ZM7.10529 12.3158C9.98254 12.3158 12.3158 9.98253 12.3158 7.10527C12.3158 4.228 9.98254 1.89472 7.10529 1.89472C4.22804 1.89472 1.89476 4.228 1.89476 7.10527C1.89476 9.98253 4.22804 12.3158 7.10529 12.3158Z" fill="#5f504d"/>
</svg>
