<svg xmlns="http://www.w3.org/2000/svg" width="12" height="12" fill="none"><path d="M6 0a.624.624 0 00-.44.182L3.22 2.523a.618.618 0 00-.136.676.627.627 0 00.336.338.622.622 0 00.678-.137l1.28-1.28v6.776a.622.622 0 101.243 0V2.12L7.902 3.4a.618.618 0 00.676.137.627.627 0 00.338-.338.621.621 0 00-.137-.676L6.44.182A.62.62 0 006 0zM.621 5.379A.622.622 0 000 6v4.965A1.036 1.036 0 001.035 12h9.93A1.037 1.037 0 0012 10.965V6a.622.622 0 10-1.242 0v4.758H1.242V6a.622.622 0 00-.62-.621z" fill="#fff"/></svg>