<?xml version="1.0" encoding="UTF-8" standalone="no"?>
<svg
   xmlns:dc="http://purl.org/dc/elements/1.1/"
   xmlns:cc="http://creativecommons.org/ns#"
   xmlns:rdf="http://www.w3.org/1999/02/22-rdf-syntax-ns#"
   xmlns:svg="http://www.w3.org/2000/svg"
   xmlns="http://www.w3.org/2000/svg"
   xmlns:sodipodi="http://sodipodi.sourceforge.net/DTD/sodipodi-0.dtd"
   xmlns:inkscape="http://www.inkscape.org/namespaces/inkscape"
   width="17.999998"
   height="12"
   viewBox="0 0 17.999998 12"
   fill="none"
   version="1.1"
   id="svg1392"
   sodipodi:docname="show.svg"
   inkscape:version="1.0.1 (c497b03c, 2020-09-10)">
  <metadata
     id="metadata1398">
    <rdf:RDF>
      <cc:Work
         rdf:about="">
        <dc:format>image/svg+xml</dc:format>
        <dc:type
           rdf:resource="http://purl.org/dc/dcmitype/StillImage" />
        <dc:title></dc:title>
      </cc:Work>
    </rdf:RDF>
  </metadata>
  <defs
     id="defs1396" />
  <sodipodi:namedview
     pagecolor="#ffffff"
     bordercolor="#666666"
     borderopacity="1"
     objecttolerance="10"
     gridtolerance="10"
     guidetolerance="10"
     inkscape:pageopacity="0"
     inkscape:pageshadow="2"
     inkscape:window-width="1792"
     inkscape:window-height="1026"
     id="namedview1394"
     showgrid="false"
     inkscape:zoom="34.083333"
     inkscape:cx="8.9999988"
     inkscape:cy="5.73325"
     inkscape:window-x="0"
     inkscape:window-y="25"
     inkscape:window-maximized="1"
     inkscape:current-layer="svg1392" />
  <path
     d="m 15.332298,2.99502 c -1.7946,-1.5234 -3.9888,-2.72827 -6.3323002,-2.72827 -2.3442202,0 -4.5384603,1.20554 -6.3323403,2.72827 -1.56319,1.32693 -2.5263,2.63923 -2.56652,2.69443 -0.13485,0.185 -0.13485,0.436 0,0.6211 0.04026,0.0552 1.00333,1.3675 2.56652,2.6944 1.79472,1.5234 3.9888601,2.7283 6.3323403,2.7283 2.3441002,0 4.5384002,-1.2055 6.3323002,-2.7283 1.5632,-1.3269 2.5263,-2.6392 2.5666,-2.6944 0.1348,-0.1851 0.1348,-0.4361 0,-0.6211 -0.0403,-0.0552 -1.0034,-1.3675 -2.5666,-2.69443 z m -0.7005,5.22113 c -1.3275,1.1233 -3.3821,2.4624 -5.6318002,2.4624 -2.2496802,0 -4.3043203,-1.3391 -5.6317903,-2.4624 -1.03485,-0.8757 -1.80309,-1.7621 -2.17163,-2.2162 0.36861,-0.4541 1.13685,-1.3405 2.17163,-2.2162 1.32747,-1.12332 3.3821101,-2.46235 5.6317903,-2.46235 2.2497002,0 4.3043002,1.33903 5.6318002,2.46235 1.0348,0.8756 1.803,1.762 2.1716,2.2162 -0.3686,0.4542 -1.1368,1.3406 -2.1716,2.2162 z"
     fill="#5f504d"
     id="path1388" />
  <path
     d="m 9.0000138,2.91875 c -1.6991,0 -3.08133,1.3822 -3.08133,3.0813 0,1.699 1.38223,3.0812 3.08133,3.0812 1.6991002,0 3.0813002,-1.3822 3.0813002,-3.0812 0,-1.6991 -1.3822,-3.0813 -3.0813002,-3.0813 z m 0,5.1079 c -1.1175,0 -2.02664,-0.9091 -2.02664,-2.0266 0,-1.1175 0.90914,-2.02661 2.02664,-2.02661 1.1175002,0 2.0267002,0.90911 2.0267002,2.02661 0,1.1175 -0.9092,2.0266 -2.0267002,2.0266 z"
     fill="#5f504d"
     id="path1390" />
</svg>
