<?xml version="1.0" encoding="UTF-8" standalone="no"?>
<svg
   xmlns:dc="http://purl.org/dc/elements/1.1/"
   xmlns:cc="http://creativecommons.org/ns#"
   xmlns:rdf="http://www.w3.org/1999/02/22-rdf-syntax-ns#"
   xmlns:svg="http://www.w3.org/2000/svg"
   xmlns="http://www.w3.org/2000/svg"
   xmlns:sodipodi="http://sodipodi.sourceforge.net/DTD/sodipodi-0.dtd"
   xmlns:inkscape="http://www.inkscape.org/namespaces/inkscape"
   width="23"
   height="22.000135"
   fill="none"
   version="1.1"
   id="svg1428"
   sodipodi:docname="star.svg"
   inkscape:version="1.0.1 (c497b03c, 2020-09-10)">
  <metadata
     id="metadata1434">
    <rdf:RDF>
      <cc:Work
         rdf:about="">
        <dc:format>image/svg+xml</dc:format>
        <dc:type
           rdf:resource="http://purl.org/dc/dcmitype/StillImage" />
        <dc:title></dc:title>
      </cc:Work>
    </rdf:RDF>
  </metadata>
  <defs
     id="defs1432" />
  <sodipodi:namedview
     pagecolor="#ffffff"
     bordercolor="#666666"
     borderopacity="1"
     objecttolerance="10"
     gridtolerance="10"
     guidetolerance="10"
     inkscape:pageopacity="0"
     inkscape:pageshadow="2"
     inkscape:window-width="1792"
     inkscape:window-height="1026"
     id="namedview1430"
     showgrid="false"
     inkscape:zoom="34.083333"
     inkscape:cx="11.607"
     inkscape:cy="11.086"
     inkscape:window-x="0"
     inkscape:window-y="25"
     inkscape:window-maximized="1"
     inkscape:current-layer="svg1428" />
  <path
     d="m 4.8861407,21.127782 c -0.645496,-0.471535 1.2711916,-7.345436 1.2711916,-7.345436 0,0 -5.32633233,-4.9511113 -5.32633233,-5.211644 0,-0.2615232 7.37469323,-1.0599617 7.37469323,-1.0599617 0,0 2.9482928,-6.67974033 3.3066818,-6.67974033 0.360369,9.906e-4 3.286882,6.68964653 3.286882,6.68964653 0,0 7.369743,0.8350913 7.369743,1.0837366 0,0.2496358 -5.343163,5.1948029 -5.343163,5.1948029 0,0 1.469197,7.187928 1.247431,7.348408 -0.221765,0.16048 -6.587623,-3.480043 -6.587623,-3.480043 0,0 -6.1480531,3.787135 -6.5995043,3.457259 z"
     stroke="#ffffff"
     stroke-width="1.662"
     stroke-linecap="round"
     stroke-linejoin="round"
     id="path1426" />
</svg>
