<?xml version="1.0" encoding="UTF-8" standalone="no"?>
<svg
   xmlns:dc="http://purl.org/dc/elements/1.1/"
   xmlns:cc="http://creativecommons.org/ns#"
   xmlns:rdf="http://www.w3.org/1999/02/22-rdf-syntax-ns#"
   xmlns:svg="http://www.w3.org/2000/svg"
   xmlns="http://www.w3.org/2000/svg"
   xmlns:sodipodi="http://sodipodi.sourceforge.net/DTD/sodipodi-0.dtd"
   xmlns:inkscape="http://www.inkscape.org/namespaces/inkscape"
   height="25"
   style="clip-rule:evenodd;fill-rule:evenodd;stroke-linejoin:round;stroke-miterlimit:2"
   version="1.1"
   viewBox="0 0 30.000587 25"
   width="30.000587"
   xml:space="preserve"
   id="svg1484"
   sodipodi:docname="twitter.svg"
   inkscape:version="1.0.1 (c497b03c, 2020-09-10)"><metadata
     id="metadata1490"><rdf:RDF><cc:Work
         rdf:about=""><dc:format>image/svg+xml</dc:format><dc:type
           rdf:resource="http://purl.org/dc/dcmitype/StillImage" /><dc:title></dc:title></cc:Work></rdf:RDF></metadata><defs
     id="defs1488" /><sodipodi:namedview
     pagecolor="#ffffff"
     bordercolor="#666666"
     borderopacity="1"
     objecttolerance="10"
     gridtolerance="10"
     guidetolerance="10"
     inkscape:pageopacity="0"
     inkscape:pageshadow="2"
     inkscape:window-width="1792"
     inkscape:window-height="1026"
     id="namedview1486"
     showgrid="false"
     fit-margin-top="0"
     fit-margin-left="0"
     fit-margin-right="0"
     fit-margin-bottom="0"
     inkscape:zoom="18.930679"
     inkscape:cx="4.2828617"
     inkscape:cy="8.6969365"
     inkscape:window-x="0"
     inkscape:window-y="25"
     inkscape:window-maximized="1"
     inkscape:current-layer="svg1484" /><path
     d="m 9.4345987,24.6885 c 11.3210033,0 17.5131363,-9.379343 17.5131363,-17.5131355 0,-0.2663724 0,-0.5315729 -0.01799,-0.7956016 C 28.13434,5.5083983 29.174224,4.4296075 30.000588,3.193724 28.877265,3.6914876 27.685504,4.0178612 26.465324,4.1621219 27.749958,3.3931224 28.712028,2.182669 29.171353,0.75764105 27.963185,1.4745496 26.641225,1.979872 25.262897,2.2516937 24.099085,1.0141109 22.473663,0.3114995 20.774938,0.3114995 c -3.37987,0 -6.160961,2.7811483 -6.160961,6.1609021 0,0.4688762 0.05356,0.9362878 0.159497,1.3929765 C 9.8270087,7.617463 5.2119574,5.2777687 2.0880289,1.4344707 0.46354398,4.2309708 1.3040878,7.8550654 3.9936522,9.650999 3.0142385,9.6219945 2.0558603,9.3577315 1.2000232,8.8805933 v 0.07799 C 1.2008435,11.87743 3.2770366,14.414412 6.1381083,14.992335 5.2319967,15.23943 4.2810602,15.275522 3.3588936,15.097922 4.1632258,17.599045 6.4826463,19.323083 9.109397,19.37242 6.9302527,21.084972 4.236821,22.015225 1.4652237,22.012471 0.9754876,22.011533 0.4862202,21.981885 -2.6831055e-7,21.923642 2.8145471,23.729829 6.0903535,24.68815 9.4345987,24.683696"
     style="fill:#1da1f2;fill-rule:nonzero;stroke-width:1"
     id="path1482" /></svg>
