<svg width="49.453" height="46.864" viewBox="0 0 49.453 46.864" fill="none" xmlns="http://www.w3.org/2000/svg"><path d="M11.582 44.184c-1.358-.99 2.675-15.448 2.675-15.448S3.052 18.324 3.052 17.776c0-.55 15.517-2.229 15.517-2.229S24.773 1.5 25.529 1.5c.756.002 6.914 14.068 6.914 14.068s15.51 1.756 15.51 2.28c0 .525-11.244 10.924-11.244 10.924s3.092 15.117 2.625 15.455c-.467.338-13.864-7.319-13.864-7.319s-12.935 7.965-13.886 7.272z" stroke="#5f504d" stroke-width="3" stroke-linecap="round" stroke-linejoin="round"/><path d="m47 2.864-42.5 42.5" stroke="#fff" stroke-width="3" stroke-linecap="round" stroke-linejoin="round"/><path d="m44 2.864-42.5 42.5" stroke="#5f504d" stroke-width="3" stroke-linecap="round" stroke-linejoin="round"/></svg>