<svg width="30" height="30" viewBox="0 0 30 30" fill="none" xmlns="http://www.w3.org/2000/svg">
<circle cx="15" cy="15" r="15" fill="#009845"/>
<path d="M20.8463 7.5996L20.84 7.6492L20.8463 7.5996C18.9098 7.35341 17.1192 7.41115 15.5247 7.77229C13.4938 8.23221 11.7519 9.18905 10.348 10.6166L10.348 10.6167C8.15062 12.8539 8.15062 16.4937 10.3482 18.7311L10.3483 18.7311C10.5542 18.9405 10.7735 19.1315 11.0039 19.3037V23.274C11.0039 23.5637 11.2351 23.8 11.522 23.8C11.8089 23.8 12.0401 23.5637 12.0401 23.274V19.9167C12.7541 20.2405 13.5338 20.411 14.3393 20.411C15.8477 20.411 17.2646 19.8142 18.3285 18.7311C19.8869 17.1461 19.6862 15.0017 19.5619 13.6749C19.5532 13.5818 19.5449 13.4927 19.5375 13.4081C19.4516 12.4164 19.3728 11.5021 19.5455 10.6861C19.7173 9.87403 20.1387 9.15834 21.0593 8.56598L21.0593 8.56598C21.244 8.44703 21.3351 8.22333 21.2876 8.00704C21.24 7.79071 21.0638 7.62727 20.8463 7.5996ZM17.595 17.9879L17.595 17.9879C16.7265 18.8721 15.5704 19.3589 14.3392 19.3589C13.5222 19.3589 12.7382 19.1442 12.0491 18.7418C12.1512 16.0489 13.1962 13.5111 15.0186 11.5544C15.8591 10.6521 16.8433 9.90729 17.8642 9.40042C18.3155 9.17635 18.7701 9.0005 19.2179 8.87527C18.892 9.33264 18.6679 9.84957 18.5412 10.432C18.3254 11.4247 18.4171 12.4824 18.505 13.4964L18.5053 13.5003C18.6527 15.2004 18.7865 16.7762 17.595 17.9879ZM11.0814 11.3599C12.6664 9.74813 14.7107 8.81409 17.1873 8.56747C16.1474 9.1176 15.1468 9.88564 14.2659 10.8315C12.436 12.7961 11.3219 15.2949 11.0628 17.9682C9.29157 16.1454 9.28851 13.1853 11.0814 11.3599Z" fill="white" stroke="white" stroke-width="0.1"/>
</svg>
