<?xml version="1.0" encoding="UTF-8" standalone="no"?>
<svg
   xmlns:dc="http://purl.org/dc/elements/1.1/"
   xmlns:cc="http://creativecommons.org/ns#"
   xmlns:rdf="http://www.w3.org/1999/02/22-rdf-syntax-ns#"
   xmlns:svg="http://www.w3.org/2000/svg"
   xmlns="http://www.w3.org/2000/svg"
   xmlns:sodipodi="http://sodipodi.sourceforge.net/DTD/sodipodi-0.dtd"
   xmlns:inkscape="http://www.inkscape.org/namespaces/inkscape"
   width="30.000002"
   height="30"
   fill="none"
   version="1.1"
   id="svg1514"
   sodipodi:docname="user.svg"
   inkscape:version="1.0.1 (c497b03c, 2020-09-10)">
  <metadata
     id="metadata1520">
    <rdf:RDF>
      <cc:Work
         rdf:about="">
        <dc:format>image/svg+xml</dc:format>
        <dc:type
           rdf:resource="http://purl.org/dc/dcmitype/StillImage" />
      </cc:Work>
    </rdf:RDF>
  </metadata>
  <defs
     id="defs1518" />
  <sodipodi:namedview
     pagecolor="#ffffff"
     bordercolor="#666666"
     borderopacity="1"
     objecttolerance="10"
     gridtolerance="10"
     guidetolerance="10"
     inkscape:pageopacity="0"
     inkscape:pageshadow="2"
     inkscape:window-width="1792"
     inkscape:window-height="998"
     id="namedview1516"
     showgrid="false"
     inkscape:zoom="21.159595"
     inkscape:cx="12.815152"
     inkscape:cy="14.914421"
     inkscape:window-x="0"
     inkscape:window-y="25"
     inkscape:window-maximized="0"
     inkscape:current-layer="svg1514" />
  <path
     fill-rule="evenodd"
     clip-rule="evenodd"
     d="m 25.033249,23.521463 a 11.888747,11.889253 0 0 0 -6.466753,-4.996377 c 1.383632,-1.072936 2.289003,-2.731574 2.289003,-4.611449 A 5.8618927,5.8621424 0 0 0 14.998721,8.0566093 5.8644502,5.8647 0 0 0 9.1419439,13.913637 c 0,1.879875 0.9053711,3.541071 2.2890021,4.611449 A 11.887468,11.887974 0 0 0 4.9654732,23.521463 13.117647,13.118206 0 0 1 1.8222507,15.001918 c 0,-7.2688519 5.910486,-13.1795897 13.1764703,-13.1795897 7.263428,0 13.176471,5.9107378 13.176471,13.1795897 0,3.245662 -1.187979,6.218935 -3.143222,8.519545 z M 10.962916,13.913637 a 4.039642,4.0398141 0 0 1 4.035805,-4.0359782 4.0383632,4.0385352 0 0 1 4.033249,4.0359782 4.0370845,4.0372565 0 0 1 -4.033249,4.034699 4.039642,4.0398141 0 0 1 -4.035805,-4.034699 z m 4.035805,14.264034 A 13.107417,13.107975 0 0 1 6.2506395,24.824587 c 0.02046,-0.02813 0.058823,-0.04348 0.076726,-0.07673 a 10.085678,10.086108 0 0 1 8.6713555,-4.977194 10.079284,10.079713 0 0 1 8.66752,4.974637 c 0.02046,0.03453 0.05115,0.05499 0.07673,0.08568 a 13.112532,13.113091 0 0 1 -8.744246,3.34669 z M 14.998721,0 C 6.7289004,0 0,6.7291871 0,15.001918 0,23.270812 6.7301791,30 15,30 23.268543,30 30.000001,23.270812 30.000001,15.001918 29.998722,6.7291871 23.267264,0 14.998721,0 Z"
     fill="#5f504d"
     id="path1512"
     style="stroke-width:1" />
</svg>
