<?xml version="1.0" encoding="UTF-8" standalone="no"?>
<svg
   xmlns:dc="http://purl.org/dc/elements/1.1/"
   xmlns:cc="http://creativecommons.org/ns#"
   xmlns:rdf="http://www.w3.org/1999/02/22-rdf-syntax-ns#"
   xmlns:svg="http://www.w3.org/2000/svg"
   xmlns="http://www.w3.org/2000/svg"
   xmlns:sodipodi="http://sodipodi.sourceforge.net/DTD/sodipodi-0.dtd"
   xmlns:inkscape="http://www.inkscape.org/namespaces/inkscape"
   width="82.057381"
   height="85.300781"
   viewBox="0 0 82.057381 85.300781"
   fill="none"
   version="1.1"
   id="svg1538"
   sodipodi:docname="weed-control.svg"
   inkscape:version="1.0.1 (c497b03c, 2020-09-10)">
  <metadata
     id="metadata1544">
    <rdf:RDF>
      <cc:Work
         rdf:about="">
        <dc:format>image/svg+xml</dc:format>
        <dc:type
           rdf:resource="http://purl.org/dc/dcmitype/StillImage" />
        <dc:title></dc:title>
      </cc:Work>
    </rdf:RDF>
  </metadata>
  <defs
     id="defs1542" />
  <sodipodi:namedview
     pagecolor="#ffffff"
     bordercolor="#666666"
     borderopacity="1"
     objecttolerance="10"
     gridtolerance="10"
     guidetolerance="10"
     inkscape:pageopacity="0"
     inkscape:pageshadow="2"
     inkscape:window-width="1792"
     inkscape:window-height="1026"
     id="namedview1540"
     showgrid="false"
     inkscape:zoom="5.0062155"
     inkscape:cx="3.0522758"
     inkscape:cy="37.662608"
     inkscape:window-x="0"
     inkscape:window-y="25"
     inkscape:window-maximized="1"
     inkscape:current-layer="svg1538" />
  <path
     id="path1530"
     d="m 40.985712,0 c -2.0209,0 -3.535156,1.6004094 -3.535156,3.537109 v 13.472657 c 0,2.0209 1.598456,3.621093 3.535156,3.621093 1.9367,0 3.537109,-1.600409 3.53711,-3.537109 V 3.621094 C 44.607121,1.6001938 43.006612,0 40.985712,0 Z m 17.009766,17.261719 c -0.9052,0 -1.809641,0.338068 -2.525391,1.011719 L 40.481806,33.261719 26.587275,19.367188 c -1.4315,-1.4315 -3.705435,-1.4315 -5.052735,0 -1.4315,1.431499 -1.4315,3.705434 0,5.052734 l 16.419922,16.419922 c 0.6736,0.6736 1.601144,1.009765 2.527344,1.009765 0.9263,0 1.851691,-0.336165 2.52539,-1.009765 L 60.522822,23.324219 c 1.431499,-1.4315 1.431499,-3.703482 0,-5.050781 -0.71575,-0.673651 -1.622144,-1.011719 -2.527344,-1.011719 z m 10.472656,11.472656 c -0.915725,0 -1.840891,0.358469 -2.556641,1.074219 L 40.481806,55.238281 16.145868,30.904297 c -1.4314,-1.4315 -3.705434,-1.4315 -5.052734,0 -1.4315003,1.4315 -1.4315003,3.703481 0,5.050781 l 26.861328,26.861328 c 0.6737,0.6737 1.601044,1.011719 2.527344,1.011719 0.9262,0 1.851791,-0.338019 2.52539,-1.011719 L 70.964228,34.861328 c 1.4315,-1.4314 1.4315,-3.705434 0,-5.052734 -0.67365,-0.71575 -1.580369,-1.074219 -2.496094,-1.074219 z m 9.957031,11.873047 c -0.915737,0 -1.82054,0.358469 -2.49414,1.074219 L 40.901728,76.794922 6.1243837,41.933594 c -1.4315,-1.4314 -3.703481,-1.4314 -5.050781,0 -1.43147028,1.4315 -1.43147028,3.705434 0,5.052734 L 38.376337,84.289062 c 0.6736,0.6737 1.599191,1.011719 2.525391,1.011719 0.9263,0 1.853743,-0.338018 2.527344,-1.011719 L 80.983759,46.734375 c 1.4315,-1.4314 1.4315,-3.705434 0,-5.052734 -0.71575,-0.71575 -1.642856,-1.074219 -2.558594,-1.074219 z"
     style="fill:#7db41e;fill-opacity:1" />
</svg>
