<svg width="18" height="18" fill="none" xmlns="http://www.w3.org/2000/svg"><path fill-rule="evenodd" clip-rule="evenodd" d="M15.01 18H2.99A3.004 3.004 0 010 15.01V2.99C0 1.35 1.35 0 2.99 0h12.02C16.65 0 18 1.35 18 2.99v12.02c0 1.64-1.35 2.99-2.99 2.99z" fill="url(#paint0_linear)"/><path fill-rule="evenodd" clip-rule="evenodd" d="M15.133 8.837c0 3.305-2.698 5.981-6.026 5.981a6.056 6.056 0 01-2.912-.742l-3.34 1.057 1.091-3.204a5.893 5.893 0 01-.865-3.092c0-3.305 2.698-5.981 6.026-5.981 3.328.011 6.026 2.687 6.026 5.981zM9.107 3.811c-2.788 0-5.06 2.26-5.06 5.026 0 1.102.36 2.114.967 2.946l-.63 1.866 1.946-.618a5.024 5.024 0 002.788.832c2.788 0 5.06-2.26 5.06-5.026s-2.272-5.026-5.071-5.026zm3.047 6.409c-.034-.056-.135-.101-.281-.169a16.13 16.13 0 00-1.012-.472c-.135-.045-.236-.079-.338.079a9.213 9.213 0 01-.472.573c-.09.101-.168.113-.315.034-.146-.079-.63-.225-1.191-.731a4.673 4.673 0 01-.821-1.012c-.09-.146-.011-.225.067-.303.068-.068.147-.169.225-.259.079-.09.101-.146.146-.247.045-.102.023-.18-.01-.259-.035-.079-.338-.798-.462-1.09-.123-.293-.247-.282-.337-.282-.09 0-.247.023-.247.023s-.293.034-.428.18-.517.506-.517 1.225c0 .72.529 1.417.607 1.518.079.101 1.023 1.63 2.519 2.215 1.506.585 1.506.393 1.776.371.27-.023.877-.36 1-.697.124-.349.124-.64.09-.697z" fill="#fff"/><defs><linearGradient id="paint0_linear" x1="8.999" y1="17.997" x2="8.999" y2="0" gradientUnits="userSpaceOnUse"><stop stop-color="#20B038"/><stop offset="1" stop-color="#60D66A"/></linearGradient></defs></svg>