<svg width="29" height="29" viewBox="0 0 29 29" fill="none" xmlns="http://www.w3.org/2000/svg">
<path fill-rule="evenodd" clip-rule="evenodd" d="M0 14.5C0 22.5069 6.4931 29 14.5 29C22.5069 29 29 22.5069 29 14.5C29 6.4931 22.5069 0 14.5 0C6.4931 0 0 6.4931 0 14.5ZM21.1438 8.85897C21.8761 9.05641 22.4521 9.6359 22.6467 10.3744C23 11.7103 23 14.5 23 14.5C23 14.5 23 17.2897 22.6441 18.6256C22.4495 19.3641 21.8735 19.9436 21.1413 20.141C19.8176 20.5 14.5 20.5 14.5 20.5C14.5 20.5 9.18494 20.5 7.85874 20.141C7.12651 19.9436 6.55045 19.3641 6.35587 18.6256C6 17.2897 6 14.5 6 14.5C6 14.5 6 11.7103 6.35843 10.3744C6.55301 9.6359 7.12907 9.05641 7.8613 8.85897C9.18494 8.5 14.5026 8.5 14.5026 8.5C14.5026 8.5 19.8176 8.5 21.1438 8.85897ZM17.2036 14.5L12.7616 11.9692V17.0308L17.2036 14.5Z" fill="#009845"/>
</svg>
